# xmcd
#
# Track frame offsets:
#	183
#	22473
#	34113
#	46658
#	59660
#	72500
#	88280
#	99488
#	109963
#	120133
#	132100
#	153448
#	166995
#	184633
#	194940
#	209700
#	221638
#	238490
#	250818
#	263955
#	274663
#	287640
#	299510
#	313273
#	326953
#
# Disc length: 4502
#
# Revision: 4
# Processed by: cddbd v1.5.1PL0 Copyright (c) Steve Scherf et al.
# Submitted via: FreeRIP 2.11 
# Normalized: r3:TDELIM( - )
#
DISCID=9d119419
DTITLE=100 Soul Hits
DYEAR=1991
DGENRE=Soul
TTITLE0=James Brown - It's Too Funky In Here
TTITLE1=Brook Benton - Kiddio
TTITLE2=Archie Bell and The Drells - Tighten Up
TTITLE3=Same and Dave - I Thank You
TTITLE4=Dobie Gray - Lovin' Arms
TTITLE5=Ben E. King - Supernatural Thing
TTITLE6=Ramsey Lewis - Dancing In The Street
TTITLE7=The Drifters - There Goes My Baby
TTITLE8=Gladys Knight and The Pips - Operator
TTITLE9=The Drells - I Wanna Go Home
TTITLE10=James Brown - Try Me
TTITLE11=Ramsey Lewis - Up Tight
TTITLE12=Gladys Knight and The Pips - So Sad The Song
TTITLE13=Brook Benton - Fools Rush In
TTITLE14=The Moments - Girls
TTITLE15=The Drifters - This MAgic Moment
TTITLE16=Percy Sledge - Behind Closed Doors
TTITLE17=The Impressions - Listen
TTITLE18=Ramsey Lewis - A Hard Days Night
TTITLE19=Gene Chandler - Duke Of Earl
TTITLE20=Sam and Dave - You Got Me Hummin'
TTITLE21=Brook Benton - Think Twice
TTITLE22=Ramsey Lewis - Since You've Been Gone
TTITLE23=James Brown - Cold Sweat/I Can't Stand Myself
TTITLE24=Ben E. King - I Who Have Nothing
EXTD=
EXTT0=
EXTT1=
EXTT2=
EXTT3=
EXTT4=
EXTT5=
EXTT6=
EXTT7=
EXTT8=
EXTT9=
EXTT10=
EXTT11=
EXTT12=
EXTT13=
EXTT14=
EXTT15=
EXTT16=
EXTT17=
EXTT18=
EXTT19=
EXTT20=
EXTT21=
EXTT22=
EXTT23=
EXTT24=
PLAYORDER=
